<svg width="24" height="24" viewBox="0 0 50 49" fill="none" xmlns="http://www.w3.org/2000/svg">
<mask id="mask0_2_61" style="mask-type:alpha" maskUnits="userSpaceOnUse" x="0" y="0" width="50" height="49">
<rect width="50" height="49" fill="#D9D9D9"/>
</mask>
<g mask="url(#mask0_2_61)">
<path d="M14.5833 34.7083H18.75V24.5H14.5833V34.7083ZM31.25 34.7083H35.4167V14.2917H31.25V34.7083ZM22.9167 34.7083H27.0833V28.5833H22.9167V34.7083ZM22.9167 24.5H27.0833V20.4167H22.9167V24.5ZM10.4167 42.875C9.27083 42.875 8.28993 42.4752 7.47396 41.6755C6.65799 40.8759 6.25 39.9146 6.25 38.7917V10.2083C6.25 9.08542 6.65799 8.12413 7.47396 7.32448C8.28993 6.52483 9.27083 6.125 10.4167 6.125H39.5833C40.7292 6.125 41.7101 6.52483 42.526 7.32448C43.342 8.12413 43.75 9.08542 43.75 10.2083V38.7917C43.75 39.9146 43.342 40.8759 42.526 41.6755C41.7101 42.4752 40.7292 42.875 39.5833 42.875H10.4167ZM10.4167 38.7917H39.5833V10.2083H10.4167V38.7917Z" fill="#1C1B1F"/>
</g>
</svg>
