<svg width="25" height="24" viewBox="0 0 25 24" fill="none" xmlns="http://www.w3.org/2000/svg">
<path d="M20.9195 19.5L5.91952 4.5M10.7195 10.4416C10.3461 10.8533 10.1195 11.394 10.1195 11.9863C10.1195 13.2761 11.194 14.3217 12.5195 14.3217C13.1307 14.3217 13.6885 14.0994 14.1122 13.7334M20.9583 14.3217C21.7845 13.0848 22.1195 12.0761 22.1195 12.0761C22.1195 12.0761 19.9349 5.1 12.5195 5.1C12.1032 5.1 11.7034 5.12199 11.3195 5.16349M17.9195 17.3494C16.5421 18.2281 14.7689 18.8495 12.5195 18.8127C5.19645 18.693 2.91953 12.0761 2.91953 12.0761C2.91953 12.0761 3.97738 8.69808 7.11952 6.64332" stroke="#1E1E1E" stroke-width="2" stroke-linecap="round"/>
</svg>
